#N canvas 3 139 1280 626 12;
#X obj 136 16 inlet;
#X obj 136 253 outlet;
#X obj 198 16 inlet;
#X obj 268 16 inlet;
#X text 917 585 RI;
#X obj 336 16 inlet;
#X obj 406 16 inlet;
#X obj 471 17 inlet;
#X obj 541 17 inlet;
#X msg 198 42 x1 \$1;
#X msg 336 42 z1 \$1;
#X msg 268 42 y1 \$1;
#X msg 406 42 x2 \$1;
#X msg 471 43 y2 \$1;
#X msg 541 43 z2 \$1;
#X obj 602 18 inlet;
#X obj 672 18 inlet;
#X obj 740 18 inlet;
#X obj 810 18 inlet;
#X obj 875 19 inlet;
#X obj 945 19 inlet;
#X msg 602 44 x3 \$1;
#X msg 672 44 y3 \$1;
#X msg 740 44 z3 \$1;
#X msg 810 44 x4 \$1;
#X msg 875 45 y4 \$1;
#X msg 945 45 z4 \$1;
#X obj 136 210 ofelia d bezier-\$0;
#X f 121;
#X obj 535 146 loadbang;
#X msg 535 171 read scripts/of-bezier.lua;
#X obj 27 45 route imageID;
#X msg 27 70 imageID \$1;
#X connect 0 0 30 0;
#X connect 2 0 9 0;
#X connect 3 0 11 0;
#X connect 5 0 10 0;
#X connect 6 0 12 0;
#X connect 7 0 13 0;
#X connect 8 0 14 0;
#X connect 9 0 27 0;
#X connect 10 0 27 0;
#X connect 11 0 27 0;
#X connect 12 0 27 0;
#X connect 13 0 27 0;
#X connect 14 0 27 0;
#X connect 15 0 21 0;
#X connect 16 0 22 0;
#X connect 17 0 23 0;
#X connect 18 0 24 0;
#X connect 19 0 25 0;
#X connect 20 0 26 0;
#X connect 21 0 27 0;
#X connect 22 0 27 0;
#X connect 23 0 27 0;
#X connect 24 0 27 0;
#X connect 25 0 27 0;
#X connect 26 0 27 0;
#X connect 27 0 1 0;
#X connect 28 0 29 0;
#X connect 29 0 27 0;
#X connect 30 0 31 0;
#X connect 30 1 27 0;
#X connect 31 0 1 0;
