#N canvas 155 86 1075 679 12;
#X obj 21 14 inlet;
#X obj 21 232 outlet;
#X obj 80 12 inlet;
#X obj 150 12 inlet;
#X obj 220 12 inlet;
#X obj 290 12 inlet;
#X msg 80 38 width \$1;
#X msg 150 38 height \$1;
#X obj 360 12 inlet;
#X obj 430 12 inlet;
#X msg 220 38 depth \$1;
#X msg 290 38 resw \$1;
#X msg 360 38 resh \$1;
#X msg 430 38 resd \$1;
#X text 988 750 RI;
#X obj 21 182 ofelia d \$0-box;
#X f 144;
#X obj 509 12 loadbang;
#X msg 509 38 read scripts/of-box.lua;
#X obj 21 207 list trim;
#X connect 0 0 15 0;
#X connect 2 0 6 0;
#X connect 3 0 7 0;
#X connect 4 0 10 0;
#X connect 5 0 11 0;
#X connect 6 0 15 0;
#X connect 7 0 15 0;
#X connect 8 0 12 0;
#X connect 9 0 13 0;
#X connect 10 0 15 0;
#X connect 11 0 15 0;
#X connect 12 0 15 0;
#X connect 13 0 15 0;
#X connect 15 0 18 0;
#X connect 16 0 17 0;
#X connect 17 0 15 0;
#X connect 18 0 1 0;
