#N canvas 233 86 1047 679 12;
#X obj 117 12 inlet;
#X obj 243 13 inlet;
#X obj 303 13 inlet;
#X obj 353 13 inlet;
#X obj 413 13 inlet;
#X obj 473 13 inlet;
#X msg 192 41 tX \$1;
#X msg 243 41 tY \$1;
#X msg 303 41 tZ \$1;
#X msg 353 41 rX \$1;
#X msg 413 41 rY \$1;
#X msg 473 41 rZ \$1;
#X text 687 633 RI, f 3;
#X obj 29 785 outlet;
#X obj 192 13 inlet;
#N canvas 0 23 476 208 Notes 0;
#X text 23 173 https://forum.openframeworks.cc/t/how-to-find-out-translated-coordinate-in-the-middle-of-draw/24866
;
#X text 22 119 - How to find out translated coordinate in the middle
of draw() -> allows translate / rotate to change current camera _c_position/rotation
?;
#X text 22 29 - Camera default point 0 \, 0 \, 0 at center and render
order is 0 (from [of.window]) - Rendering order < 0 and > 1000 will
be out of camera with default openframeworks starting point 0 \, 0
\, 0 at BOTTOM LEFT because openGL texture is reversed);
#X restore 773 32 pd Notes;
#X obj 117 70 ofelia d camera-\$0 \; local c = ofCanvas(this) \; local
v = ofVec3f(0 \, 1 \, 0) \; local args = c:getArgs() \; local debug
\, ortho \, gridsteps \, gridsize \, fov = 0 \, 0 \, 10 \, 100 \, 60
\; \; function M.new() \; ofWindow.addListener("setup" \, this \, -1)
\; if type (_c_position) == "nil" then _c_position = ofVec3f(0 \, 0
\, 400) print ("createPos") end \; if type (_c_orientation) == "nil"
then _c_orientation = ofVec3f() print ("createOri") end \; if type
(_c_lookat) == "nil" then _c_lookat = ofVec3f() print ("createLook")
end \; if args[1] ~= nil then _c_position.x = args[1] end \; if args[2]
~= nil then _c_position.y = args[2] end \; if args[3] ~= nil then _c_position.z
= args[3] end \; if args[4] ~= nil then _c_orientation.x = args[4]
end \; if args[5] ~= nil then _c_orientation.y = args[5] end \; if
args[6] ~= nil then _c_orientation.z = args[6] end \; if args[7] ~=
nil then fov = args[7] end \; M.setup() end \; function M.free() \;
ofWindow.removeListener("setup" \, this) end \; \; function M.setup()
\; _maincamera:setPosition(_c_position:vec3()) _maincamera:setOrientation(_c_orientation:vec3())
_maincamera:setFov(fov) end \; \; function M.tX(float) _c_position.x
= float _maincamera:setPosition(_c_position:vec3()) end \; function
M.tY(float) _c_position.y = float _maincamera:setPosition(_c_position:vec3())
end \; function M.tZ(float) _c_position.z = float _maincamera:setPosition(_c_position:vec3())
end \; function M.rX(float) _c_orientation.x = float _maincamera:setOrientation(_c_orientation:vec3())
end \; function M.rY(float) _c_orientation.y = float _maincamera:setOrientation(_c_orientation:vec3())
end \; function M.rZ(float) _c_orientation.z = float _maincamera:setOrientation(_c_orientation:vec3())
end \; function M.ortho(float) ortho = float if ortho > 0 then _maincamera:enableOrtho()
else _maincamera:disableOrtho() end end \; function M.fov(float) fov
= float _maincamera:setFov(fov) end \; function M.debug(f) debug =
f end \; function M.reset() M.position(ofTable(0 \, 0 \, 400))M.orientation(ofTable(0
\, 0 \, 0)) M.fov(60) M.ortho(0) M.vflip(0) end \; function M.gridsteps(f)
gridsteps = math.abs(f) end \; function M.gridsize(f) gridsize = f
end \; function M.vflip(float) _maincamera:setVFlip(float~=0) end \;
function M.aspectratio(f) _maincamera:setAspectRatio(f) end \; function
M.farclip(f) _maincamera:setFarClip(f) end \; function M.lensoffset(l)
_maincamera:setLensOffset(ofVec2f(l[1] \, l[2]):vec2())end \; function
M.nearclip(f) _maincamera:setNearClip(f) end \; function M.position(l)
_c_position:set (l[1] \, l[2] \, l[3]) _maincamera:setPosition(_c_position:vec3())
end \; function M.orientation(l) _c_orientation:set (l[1] \, l[2] \,
l[3]) _maincamera:setOrientation(_c_orientation:vec3()) end \; function
M.lookat(l) _c_lookat:set (l[1] \, l[2] \, l[3]) _maincamera:lookAt(_c_lookat:vec3()
\, v:vec3()) end \; function M.orbit(l) _maincamera:orbitDeg(l[1] \,
l[2] \, l[3] \, ofVec3f(l[4] \, l[5] \, l[6]):vec3())end \; function
M.list(l) _c_position.x=l[1] _c_position.y=l[2] _c_position.z=l[3]
_c_orientation.x=l[4] _c_orientation.y=l[5] _c_orientation.z=l[6] _maincamera:setPosition(_c_position:vec3())
_maincamera:setOrientation(_c_orientation:vec3()) M.fov(l[7]) end \;
\; function M.bang() \; if debug == 1 then ofDisableLighting() ofDrawGrid
(gridsize \, gridsteps \, false) \; if _lighting == 1 then ofEnableLighting()
end end \; return anything \; end \;;
#X f 138;
#X obj 29 45 route imageID;
#X msg 29 95 imageID \$1;
#X obj 29 70 symbol;
#X connect 0 0 17 0;
#X connect 1 0 7 0;
#X connect 2 0 8 0;
#X connect 3 0 9 0;
#X connect 4 0 10 0;
#X connect 5 0 11 0;
#X connect 6 0 16 0;
#X connect 7 0 16 0;
#X connect 8 0 16 0;
#X connect 9 0 16 0;
#X connect 10 0 16 0;
#X connect 11 0 16 0;
#X connect 14 0 6 0;
#X connect 16 0 13 0;
#X connect 17 0 19 0;
#X connect 17 1 16 0;
#X connect 18 0 13 0;
#X connect 19 0 18 0;
