#N canvas 342 86 944 679 12;
#X obj 31 24 inlet;
#X obj 31 213 outlet;
#X obj 90 22 inlet;
#X obj 170 22 inlet;
#X obj 250 22 inlet;
#X obj 320 22 inlet;
#X obj 390 22 inlet;
#X msg 90 48 radius \$1;
#X msg 170 48 height \$1;
#X msg 250 48 rseg \$1;
#X msg 320 48 hseg \$1;
#X msg 390 48 cseg \$1;
#X text 786 773 RI;
#X obj 31 163 ofelia d cone-\$0;
#X f 131;
#X obj 466 22 loadbang;
#X msg 466 48 read scripts/of-cone.lua;
#X obj 31 188 list trim;
#X connect 0 0 13 0;
#X connect 2 0 7 0;
#X connect 3 0 8 0;
#X connect 4 0 9 0;
#X connect 5 0 10 0;
#X connect 6 0 11 0;
#X connect 7 0 13 0;
#X connect 8 0 13 0;
#X connect 9 0 13 0;
#X connect 10 0 13 0;
#X connect 11 0 13 0;
#X connect 13 0 16 0;
#X connect 14 0 15 0;
#X connect 15 0 13 0;
#X connect 16 0 1 0;
