#N canvas 116 113 848 652 12;
#X obj 152 20 inlet;
#X obj 211 18 inlet;
#X obj 281 18 inlet;
#X obj 351 18 inlet;
#X obj 421 18 inlet;
#X msg 211 44 r \$1;
#X msg 281 44 g \$1;
#X msg 351 44 b \$1;
#X msg 421 44 a \$1;
#X text 466 622 RI;
#X text 149 589 Todo: add HSB with arguments;
#X obj 27 626 outlet;
#X obj 36 574 list trim;
#X obj 94 626 outlet;
#X obj 36 597 route bang;
#X obj 152 71 ofelia d color-\$0 \; local log = ofLog("of.color") \;
local c = ofCanvas(this) \; local args = c:getArgs() \; local color
= ofColor() \; \; function M.new() \; if args[1] == nil then color.r
= 255 else color.r = args[1] end \; if args[2] == nil then color.g
= 255 else color.g = args[2] end \; if args[3] == nil then color.b
= 255 else color.b = args[3] end \; if args[4] == nil then color.a
= 255 else color.a = args[4] end \; if #args == 1 then \; log:error("requires
3 (rgb) or 4 (rgba) creation argument") \; end \; end \; \; function
M.r(f) color.r = f end \; function M.g(f) color.g = f end \; function
M.b(f) color.b = f end \; function M.a(f) color.a = f end \; function
M.b(f) color:setBrightness(f) end \; function M.s(f) color:setSaturation(f)
end \; function M.h(f) color:setHue(f) end \; function M.hex(s) color:setHex(tonumber(s:gsub("#"
\, "") \, 16)) end \; function M.hsb(l) color:setHsb(l[1] \, l[2] \,
l[3] \, l[4]) end \; function M.list(mylist) \; color.r=mylist[1] \;
color.g=mylist[2] \; color.b=mylist[3] \; color.a=mylist[4] \; if mylist[4]
== nil then a = 255 end end \; function M.get() return ofTable (color.r
\, color.g \, color.b \, color.a \, color:getHue() \, color:getSaturation()
\, color:getBrightness() \, color:getHex())end \; \; function M.bang()
\; ofSetColor(color) \; return anything \; end \;;
#X f 93;
#X obj 27 45 route imageID;
#X msg 27 70 imageID \$1;
#X connect 0 0 16 0;
#X connect 1 0 5 0;
#X connect 2 0 6 0;
#X connect 3 0 7 0;
#X connect 4 0 8 0;
#X connect 5 0 15 0;
#X connect 6 0 15 0;
#X connect 7 0 15 0;
#X connect 8 0 15 0;
#X connect 12 0 14 0;
#X connect 14 0 11 0;
#X connect 14 1 13 0;
#X connect 15 0 12 0;
#X connect 16 0 17 0;
#X connect 16 1 15 0;
#X connect 17 0 11 0;
