#N canvas 68 86 967 679 12;
#X obj 31 14 inlet;
#X obj 31 244 outlet;
#X obj 90 14 inlet;
#X obj 170 12 inlet;
#X obj 250 12 inlet;
#X obj 320 12 inlet;
#X obj 390 12 inlet;
#X msg 90 38 radius \$1;
#X msg 170 38 height \$1;
#X msg 250 38 rres \$1;
#X msg 320 38 hres \$1;
#X text 700 707 RI;
#X msg 390 38 cres \$1;
#X obj 31 219 ofelia d cylinder-\$0;
#X f 130;
#X obj 470 12 loadbang;
#X msg 470 38 read scripts/of-cylinder.lua;
#X connect 0 0 13 0;
#X connect 2 0 7 0;
#X connect 3 0 8 0;
#X connect 4 0 9 0;
#X connect 5 0 10 0;
#X connect 6 0 12 0;
#X connect 7 0 13 0;
#X connect 8 0 13 0;
#X connect 9 0 13 0;
#X connect 10 0 13 0;
#X connect 12 0 13 0;
#X connect 13 0 1 0;
#X connect 14 0 15 0;
#X connect 15 0 13 0;
