#N canvas 12 86 859 679 12;
#X obj 130 7 inlet;
#X obj 27 600 outlet;
#X obj 192 7 inlet;
#X obj 352 7 inlet;
#X text 863 544 RI;
#X msg 352 33 res \$1;
#X obj 272 7 inlet;
#X msg 192 33 width \$1;
#X msg 272 33 height \$1;
#X obj 130 68 ofelia d ellipse-\$0 \; local c = ofCanvas(this) \; local
args = c:getArgs() \; local node\$0 = ofNode() \; local width \, height
\, res \, drawmode \, strokeweight \, debug = args[1] \, args[2] \,
args[3] \, args[4] \, args[5] \; local position \, orientation \, scale
= ofVec3f(0 \, 0 \, 0) \, ofVec3f(0 \, 0 \, 0) \, ofVec3f(1 \, 1 \,
1) \; \; function M.new() \; if args[1] == nil then width = 100 end
\; if args[2] == nil then height = 100 end \; if args[3] == nil then
res = 20 end \; if args[4] == nil then drawmode = "fill" end \; if
args[5] == nil then strokeweight = 1 end \; end \; \; function M.width(f)
width=f end \; function M.height(f) height=f end \; function M.res(f)
res=f end \; function M.draw(s) drawmode = s end \; function M.stroke(f)
strokeweight = f end \; function M.list(l) width = l[1] height = l[2]
res = l[3] drawmode = l[4] strokeweight = l[5] end \; function M.debug(f)
debug = f end \; function M.position(l) position.x=l[1] position.y=l[2]
position.z=l[3] node\$0:setPosition(position:vec3()) end \; function
M.orientation(l) orientation.x=l[1] orientation.y=l[2] orientation.z=l[3]
node\$0:setOrientation(orientation:vec3()) end \; function M.scale(l)
scale.x=l[1] scale.y=l[2] scale.z=l[3] node\$0:setScale(scale:vec3())
end \; \; function M.bang() \; ofSetLineWidth(strokeweight) \; if drawmode
== "line" then ofNoFill() end \; node\$0:transformGL() \; ofSetCircleResolution(math.abs(res))
\; ofDrawEllipse(position:vec3() \, width \, height) \; node\$0:restoreTransformGL()
\; if debug == 1 then node\$0:draw() end \; ofFill() \; return anything
\; end \;;
#X f 108;
#X obj 27 38 route imageID;
#X msg 27 88 imageID \$1;
#X obj 27 63 symbol;
#X connect 0 0 10 0;
#X connect 2 0 7 0;
#X connect 3 0 5 0;
#X connect 5 0 9 0;
#X connect 6 0 8 0;
#X connect 7 0 9 0;
#X connect 8 0 9 0;
#X connect 9 0 1 0;
#X connect 10 0 12 0;
#X connect 10 1 9 0;
#X connect 11 0 1 0;
#X connect 12 0 11 0;
