#N canvas 346 86 881 679 12;
#X obj 15 0 inlet;
#X obj 15 115 outlet;
#X text 695 85 RI;
#X obj 430 270 outlet;
#X obj 845 115 outlet;
#X obj 15 90 ofelia d -c13 fbo-\$0;
#X f 119;
#X obj 60 0 loadbang;
#X msg 60 25 read scripts/of-fbo.lua;
#X obj 430 140 f \$0;
#X obj 430 115 route bang;
#X msg 430 165 imageID image-\$1 \, bang;
#X text 15 138 outlet for drawing into the fbo \; not *using* the texture
\; so \, no need to pass the ID;
#X text 430 291 outlet to apply the texture downstream \; does need
the ID;
#X connect 0 0 5 0;
#X connect 5 0 1 0;
#X connect 5 1 9 0;
#X connect 5 2 4 0;
#X connect 6 0 7 0;
#X connect 7 0 5 0;
#X connect 8 0 10 0;
#X connect 9 0 8 0;
#X connect 9 1 3 0;
#X connect 10 0 3 0;
