#N canvas 260 86 978 679 12;
#X obj 31 14 inlet;
#X obj 31 189 outlet;
#X obj 90 12 inlet;
#X obj 170 12 inlet;
#X msg 170 38 res \$1;
#X text 923 661 RI;
#X msg 90 38 radius \$1;
#X obj 31 164 ofelia d icosphere-\$0;
#X f 136;
#X obj 239 12 loadbang;
#X msg 239 38 read scripts/of-icosphere.lua;
#X connect 0 0 7 0;
#X connect 2 0 6 0;
#X connect 3 0 4 0;
#X connect 4 0 7 0;
#X connect 6 0 7 0;
#X connect 7 0 1 0;
#X connect 8 0 9 0;
#X connect 9 0 7 0;
