#N canvas 450 86 771 679 12;
#X obj 15 10 inlet;
#X obj 15 135 outlet;
#X obj 733 135 outlet;
#X text 669 133 RI;
#X obj 15 110 ofelia d -c12 image-\$0;
#X f 103;
#X obj 59 10 loadbang;
#X msg 59 35 read scripts/of-image.lua;
#X connect 0 0 4 0;
#X connect 4 0 1 0;
#X connect 4 1 2 0;
#X connect 5 0 6 0;
#X connect 6 0 4 0;
