#N canvas 450 86 771 679 12;
#X obj 15 10 inlet;
#X obj 15 316 outlet;
#X obj 733 135 outlet;
#X text 669 133 RI;
#X obj 59 10 loadbang;
#X msg 59 35 read scripts/of-image.lua;
#X obj 15 160 f \$0;
#X obj 15 135 route bang;
#X text 207 185 .lua script file has no knowledge of \$0's value \;
Pd objects must interpolate the ID message;
#X msg 15 185 imageID image-\$1 \, bang;
#X obj 15 110 ofelia d -c12 image-\$0;
#X f 103;
#X obj 15 70 route imageID;
#X text 114 70 swallow 'imageID': this object originates a new value
;
#X connect 0 0 11 0;
#X connect 4 0 5 0;
#X connect 5 0 10 0;
#X connect 6 0 9 0;
#X connect 7 0 6 0;
#X connect 7 1 1 0;
#X connect 9 0 1 0;
#X connect 10 0 7 0;
#X connect 10 1 2 0;
#X connect 11 1 10 0;
