#N canvas 577 56 703 594 12;
#X declare -lib ofelia;
#X obj 9 10 cnv 15 600 60 empty empty empty 20 12 0 14 -233017 -66577
0;
#X obj 470 11 declare -lib ofelia;
#X msg 413 29 lighting \$1;
#X obj 413 11 tgl 15 0 empty empty empty 17 7 0 10 -262144 -1 -1 0
1;
#X obj 413 51 of.window 640 480 30 create;
#X text 25 529 More infos on basic lighting: https://learnopengl.com/Lighting/Basic-Lighting
, f 81;
#X obj 20 140 of.pointlight;
#X obj 20 335 of.translate 0 0 -200;
#X obj 20 423 of.sphere 100 50;
#X obj 20 186 of.light 0;
#X obj 20 254 of.text Unlighted center;
#X obj 20 220 of.rectrounded 250 80 50 center line 5;
#X obj 20 110 of.draw 10;
#X text 16 19 Exclude subsequents objects from light;
#X obj 20 300 of.light 1;
#X text 103 300 -> turn light again;
#X text 103 186 -> turn off light here;
#X obj 87 166 tgl 15 0 empty empty empty 17 7 0 10 -262144 -1 -1 0
1;
#X obj 87 282 tgl 15 0 empty empty empty 17 7 0 10 -262144 -1 -1 1
1;
#X text 16 39 Arguments: light-allowance (default: 1);
#X obj 20 379 of.material 100;
#X connect 2 0 4 0;
#X connect 3 0 2 0;
#X connect 6 0 9 0;
#X connect 7 0 20 0;
#X connect 9 0 11 0;
#X connect 10 0 14 0;
#X connect 11 0 10 0;
#X connect 12 0 6 0;
#X connect 14 0 7 0;
#X connect 17 0 9 1;
#X connect 18 0 14 1;
#X connect 20 0 8 0;
