#N canvas 156 144 767 447 12;
#X obj 142 14 inlet;
#X obj 35 319 outlet;
#X obj 260 14 inlet;
#X msg 260 58 pass \$1;
#X obj 142 88 ofelia d -c12 nolight-\$0 \; local canvas = ofCanvas(this)
\; local args = canvas:getArgs() \; local outlet = ofOutlet(this) \;
local pass = args[1] \; \; function M.pass(f) pass = f end \; function
M.bang() \; if pass == 1 and _lighting == 1 then ofEnableLighting()
else ofDisableLighting() end \; outlet:outletBang(0) \; if _lighting
== 1 then ofEnableLighting() else ofEnableLighting() end end \;;
#X f 71;
#X obj 35 45 route imageID;
#X msg 35 95 imageID \$1;
#X obj 35 70 symbol;
#X connect 0 0 5 0;
#X connect 2 0 3 0;
#X connect 3 0 4 0;
#X connect 4 0 1 0;
#X connect 5 0 7 0;
#X connect 5 1 4 0;
#X connect 6 0 1 0;
#X connect 7 0 6 0;
