#N canvas 464 86 732 679 12;
#X obj 15 3 inlet;
#X obj 15 346 outlet;
#X obj 59 3 inlet;
#X obj 656 171 outlet;
#X msg 59 28 frame \$1;
#X text 618 155 RI;
#N canvas 0 23 563 185 Notes 0;
#X text 32 117 https://forum.openframeworks.cc/t/autoplay-behaviour-of-ofvideoplayer/35905
;
#X text 15 75 - Blank picture after windows re-creation (temp fix:
re-open in setup), f 70;
#X text 14 21 - Current frames returns a negative value on the last
frame (temp fix is to do ofClamp), f 71;
#X text 15 95 - Always autoplay after loading a file pb (OSX but not
on windows):, f 70;
#X text 14 56 - play backward have some jittery frames (might depends
on codec?), f 71;
#X restore 425 11 pd Notes;
#X obj 15 122 ofelia d -c12 videoplayer-\$0;
#X f 92;
#X obj 130 3 loadbang;
#X msg 130 28 read scripts/of-movie.lua;
#X obj 15 180 f \$0;
#X obj 15 155 route bang;
#X msg 15 205 imageID videoplayer-\$1 \, bang;
#X obj 15 72 route imageID;
#X connect 0 0 13 0;
#X connect 2 0 4 0;
#X connect 4 0 7 0;
#X connect 7 0 11 0;
#X connect 7 1 3 0;
#X connect 8 0 9 0;
#X connect 9 0 7 0;
#X connect 10 0 12 0;
#X connect 11 0 10 0;
#X connect 11 1 1 0;
#X connect 12 0 1 0;
#X connect 13 1 7 0;
