#N canvas 79 363 521 300 12;
#X obj 28 17 inlet;
#X obj 178 155 outlet;
#X obj 66 144 t a a;
#X obj 178 82 ofelia d \; function M.bang() \; ofDisableLighting()
\; return (anything) end \;;
#X obj 66 209 ofelia d \; function M.bang() \; if _lighting > 0 then
ofEnableLighting() \; return (anything) end end \;;
#X obj 28 42 route imageID;
#X msg 28 67 imageID \$1;
#X connect 0 0 5 0;
#X connect 2 0 4 0;
#X connect 2 1 3 0;
#X connect 3 0 1 0;
#X connect 5 0 6 0;
#X connect 5 1 2 0;
#X connect 6 0 1 0;
