#N canvas 295 86 1068 679 12;
#X msg 200 31 noisescale \$1;
#X msg 310 30 noisevel \$1;
#X obj 15 5 inlet;
#X obj 200 6 inlet;
#X obj 310 5 inlet;
#X obj 15 110 ofelia d tex-\$0;
#X f 101;
#X obj 15 316 outlet;
#X obj 15 160 f \$0;
#X obj 15 135 route bang;
#X obj 419 5 loadbang;
#X msg 419 30 read scripts/of-noise.lua;
#X msg 15 185 imageID tex-\$1 \, bang;
#X connect 0 0 5 0;
#X connect 1 0 5 0;
#X connect 2 0 5 0;
#X connect 3 0 0 0;
#X connect 4 0 1 0;
#X connect 5 0 8 0;
#X connect 7 0 11 0;
#X connect 8 0 7 0;
#X connect 8 1 6 0;
#X connect 9 0 10 0;
#X connect 10 0 5 0;
#X connect 11 0 6 0;
