#N canvas 347 86 870 679 12;
#X obj 31 24 inlet;
#X obj 31 216 outlet;
#X obj 90 22 inlet;
#X obj 160 22 inlet;
#X obj 240 22 inlet;
#X obj 320 22 inlet;
#X msg 90 48 width \$1;
#X msg 160 48 height \$1;
#X msg 240 48 columns \$1;
#X msg 320 48 rows \$1;
#X text 814 202 RI;
#X obj 31 166 ofelia d plane-\$0;
#X f 115;
#X obj 387 22 loadbang;
#X msg 387 48 read scripts/of-plane.lua;
#X obj 31 191 list trim;
#X connect 0 0 11 0;
#X connect 2 0 6 0;
#X connect 3 0 7 0;
#X connect 4 0 8 0;
#X connect 5 0 9 0;
#X connect 6 0 11 0;
#X connect 7 0 11 0;
#X connect 8 0 11 0;
#X connect 9 0 11 0;
#X connect 11 0 14 0;
#X connect 12 0 13 0;
#X connect 13 0 11 0;
#X connect 14 0 1 0;
