#N canvas 549 111 700 590 12;
#X obj 59 25 inlet;
#X obj 59 50 route imageID;
#X obj 59 183 outlet;
#X obj 147 75 ofelia d pointlight-\$0;
#X msg 59 100 imageID \$1;
#X obj 171 25 loadbang;
#X msg 171 50 read scripts/of-pointlight.lua;
#X obj 59 75 symbol;
#X connect 0 0 1 0;
#X connect 1 0 7 0;
#X connect 1 1 3 0;
#X connect 3 0 2 0;
#X connect 4 0 2 0;
#X connect 5 0 6 0;
#X connect 6 0 3 0;
#X connect 7 0 4 0;
