#N canvas 401 86 870 679 12;
#X obj 31 24 inlet;
#X obj 31 196 outlet;
#X obj 90 22 inlet;
#X obj 200 22 inlet;
#X obj 310 22 inlet;
#X obj 420 22 inlet;
#X text 814 735 RI;
#X msg 90 48 corner0 \$1 \$2;
#X msg 200 48 corner1 \$1 \$2;
#X msg 310 48 corner2 \$1 \$2;
#X msg 420 48 corner3 \$1 \$2;
#X obj 31 171 ofelia d quad\$0;
#X f 115;
#X obj 536 22 loadbang;
#X msg 536 48 read scripts/of-quad.lua;
#X connect 0 0 11 0;
#X connect 2 0 7 0;
#X connect 3 0 8 0;
#X connect 4 0 9 0;
#X connect 5 0 10 0;
#X connect 7 0 11 0;
#X connect 8 0 11 0;
#X connect 9 0 11 0;
#X connect 10 0 11 0;
#X connect 11 0 1 0;
#X connect 12 0 13 0;
#X connect 13 0 11 0;
