#N canvas 639 180 496 488 12;
#X obj 119 11 inlet;
#X obj 13 439 outlet;
#X obj 200 11 inlet;
#X obj 260 10 inlet;
#X obj 322 10 inlet;
#X msg 260 31 y \$1;
#X msg 200 31 x \$1;
#X msg 322 31 z \$1;
#X text 523 429 RI;
#X obj 119 68 ofelia d rotate-\$0 \; local c = ofCanvas(this) \; local
args = c:getArgs() \; local x \, y \, z = args[1] \, args[2] \, args[3]
\; \; function M.new() \; if args[1] == nil then x = 0 end \; if args[2]
== nil then y = 0 end \; if args[3] == nil then z = 0 end \; end \;
function M.x(float) x=float end \; function M.y(float) y=float end
\; function M.z(float) z=float end \; \; function M.list(mylist) \;
x=mylist[1] \; y=mylist[2] \; z=mylist[3] \; end \; \; function M.bang()
\; ofRotateXDeg(x) \; ofRotateYDeg(y) \; ofRotateZDeg(z) \; return
(anything) \; end \;;
#X f 61;
#X obj 13 42 route imageID;
#X msg 13 92 imageID \$1;
#X obj 13 67 symbol;
#X connect 0 0 10 0;
#X connect 2 0 6 0;
#X connect 3 0 5 0;
#X connect 4 0 7 0;
#X connect 5 0 9 0;
#X connect 6 0 9 0;
#X connect 7 0 9 0;
#X connect 9 0 1 0;
#X connect 10 0 12 0;
#X connect 10 1 9 0;
#X connect 11 0 1 0;
#X connect 12 0 11 0;
