#N canvas 318 105 962 660 12;
#X obj 27 20 inlet;
#X obj 122 185 outlet;
#X text 116 10 http://openframeworks.kr/doxygen/classof_light.html#a511fcf1d033fd005ecdd5d0eb9c5811f
, f 100;
#X text 378 30 https://forum.openframeworks.cc/t/understanding-oflight/26230/3
, f 100;
#X text 723 6 https://forum.openframeworks.cc/t/3-point-light-in-of/22075/2
, f 100;
#X obj 122 160 ofelia d light\$0;
#X f 17;
#X obj 149 49 loadbang;
#X msg 149 74 read scripts/of-spotlight.lua;
#X obj 27 45 route imageID, f 14;
#X msg 27 95 imageID \$1;
#X obj 27 70 symbol;
#X connect 0 0 8 0;
#X connect 5 0 1 0;
#X connect 6 0 7 0;
#X connect 7 0 5 0;
#X connect 8 0 10 0;
#X connect 8 1 5 0;
#X connect 9 0 1 0;
#X connect 10 0 9 0;
