#N canvas 493 149 503 464 12;
#X obj 165 18 inlet;
#X obj 40 409 outlet;
#X obj 246 18 inlet;
#X obj 316 17 inlet;
#X obj 388 17 inlet;
#X msg 316 38 y \$1;
#X msg 246 38 x \$1;
#X msg 388 38 z \$1;
#X text 598 388 RI;
#X obj 165 75 ofelia d scale-\$0 \; local c = ofCanvas(this) \; local
args = c:getArgs() \; local x \, y \, z = args[1] \, args[2] \, args[3]
\; function M.new() \; if args[1] == nil then x = 1 end \; if args[2]
== nil then y = 1 end \; if args[3] == nil then z = 1 end \; end \;
function M.x(float) x=float end \; function M.y(float) y=float end
\; function M.z(float) z=float end \; \; function M.list(mylist) \;
x=mylist[1] \; y=mylist[2] \; z=mylist[3] \; end \; \; function M.bang()
\; ofScale(x \, y \, z) \; return (anything) \; end \;;
#X f 61;
#X obj 40 42 route imageID;
#X msg 40 67 imageID \$1;
#X connect 0 0 10 0;
#X connect 2 0 6 0;
#X connect 3 0 5 0;
#X connect 4 0 7 0;
#X connect 5 0 9 0;
#X connect 6 0 9 0;
#X connect 7 0 9 0;
#X connect 9 0 1 0;
#X connect 10 0 11 0;
#X connect 10 1 9 0;
#X connect 11 0 1 0;
