#N canvas 548 113 630 500 12;
#X obj 56 33 inlet;
#X obj 258 33 loadbang;
#X obj 56 387 ofelia d shader-\$0;
#X obj 258 58 f \$0;
#X obj 56 437 outlet;
#X obj 365 108 print initmsg;
#X msg 258 83 read scripts/of-shader.lua \, setImageID shader-\$1;
#X obj 56 412 list trim;
#X obj 410 178 list prepend setParameter;
#X obj 410 203 list trim;
#X msg 197 203 imageID \$1;
#X obj 197 178 symbol;
#X obj 56 253 list prepend setParameter;
#X obj 56 278 list trim;
#X obj 126 303 list trim;
#X obj 126 278 list prepend getParameter;
#X msg 339 278 useFbo \$1;
#X obj 56 153 route setParameter getParameter imageID bang useFbo;
#X obj 64 359 r to_shader_\$0;
#X obj 197 228 s to_shader_\$0;
#X obj 339 316 s to_shader_\$0;
#X obj 258 108 s to_shader_\$0;
#X connect 0 0 17 0;
#X connect 1 0 3 0;
#X connect 2 0 7 0;
#X connect 3 0 6 0;
#X connect 6 0 5 0;
#X connect 6 0 21 0;
#X connect 7 0 4 0;
#X connect 8 0 9 0;
#X connect 9 0 20 0;
#X connect 10 0 19 0;
#X connect 11 0 10 0;
#X connect 12 0 13 0;
#X connect 13 0 2 0;
#X connect 14 0 2 0;
#X connect 15 0 14 0;
#X connect 16 0 20 0;
#X connect 17 0 12 0;
#X connect 17 1 15 0;
#X connect 17 2 11 0;
#X connect 17 3 20 0;
#X connect 17 4 16 0;
#X connect 17 5 8 0;
#X connect 18 0 2 0;
