#N canvas 548 113 630 500 12;
#X obj 56 33 inlet;
#X obj 250 33 loadbang;
#X obj 56 387 ofelia d shader-\$0;
#X obj 250 58 f \$0;
#X obj 56 437 outlet;
#X obj 303 115 print initmsg;
#X msg 250 83 read scripts/of-shader.lua \, setImageID shader-\$1;
#X obj 315 33 inlet;
#X obj 56 412 list trim;
#X obj 56 153 route setParameter getParameter imageID bang;
#X obj 361 178 list prepend setParameter;
#X obj 361 203 list trim;
#X msg 208 203 imageID \$1;
#X obj 208 178 symbol;
#X obj 56 228 list prepend setParameter;
#X obj 56 253 list trim;
#X obj 132 278 list trim;
#X obj 132 253 list prepend getParameter;
#X connect 0 0 9 0;
#X connect 1 0 3 0;
#X connect 2 0 8 0;
#X connect 3 0 6 0;
#X connect 6 0 5 0;
#X connect 6 0 2 0;
#X connect 7 0 3 0;
#X connect 8 0 4 0;
#X connect 9 0 14 0;
#X connect 9 1 17 0;
#X connect 9 2 13 0;
#X connect 9 3 2 0;
#X connect 9 4 10 0;
#X connect 10 0 11 0;
#X connect 11 0 2 0;
#X connect 12 0 2 0;
#X connect 13 0 12 0;
#X connect 14 0 15 0;
#X connect 15 0 2 0;
#X connect 16 0 2 0;
#X connect 17 0 16 0;
