#N canvas 588 86 717 679 12;
#X obj 15 20 inlet;
#X obj 15 148 outlet;
#X obj 663 148 outlet;
#X text 447 731 RI;
#X obj 15 123 ofelia d -c12 video-\$0;
#X f 93;
#X obj 73 20 loadbang;
#X msg 73 45 read scripts/of-videoin.lua;
#X connect 0 0 4 0;
#X connect 4 0 1 0;
#X connect 4 1 2 0;
#X connect 5 0 6 0;
#X connect 6 0 4 0;
