#N canvas 166 86 934 679 12;
#X obj 170 9 inlet;
#X text 687 786 RI, f 4;
#X obj 170 46 ofelia d view-\$0 \; local c = ofCanvas(this) \; local
args = c:getArgs() \; view\$0 = ofEasyCam() \; local active \, distance
\, sensitivity \, inertia \, drag = args[1] \, args[2] \, args[3] \,
args[4] \, args[5] \; local debug \; local outlet = ofOutlet(this)
\; \; function M.new() \; ofWindow.addListener("setup" \, this) \;
if args[1] == nil then active = 1 end \; if args[2] == nil then distance
= 400 end \; if args[3] == nil then sensitivity = 1 end \; if args[4]
== nil then inertia = 0 end \; if args[5] == nil then drag = 0.5 \;
end \; M.setup() \; end \; function M.free() \; ofWindow.removeListener("setup"
\, this) \; end \; function M.setup() \; view\$0:setAutoDistance(false)
\; view\$0:setDistance(distance) \; view\$0:setRelativeYAxis(true)
\; M.active(active) \; M.inertia(inertia) \; M.drag(drag) \; M.sensitivity(sensitivity)
\; end \; function M.reset() view\$0:reset() view\$0:setDistance(400)
end \; \; function M.active(float) active = float \; if active == 1
then view\$0:enableMouseInput() \; else view\$0:disableMouseInput()
end end \; function M.distance(float) distance = float view\$0:setDistance(distance)
end \; function M.inertia(float) \; inertia = float \; if inertia ==
1 then view\$0:enableInertia() \; else view\$0:disableInertia() \;
end \; end \; function M.drag(float) drag = float view\$0:setDrag(drag)
end \; function M.sensitivity(float) \; view\$0:setRotationSensitivity(float
\, float \, float) end \; function M.debug(float) debug = float end
\; \; function M.bang() \; view\$0:beginCamera() \; if debug == 1 then
ofDrawAxis(100) end \; outlet:outletBang(0) \; view\$0:endCamera()
\; end \;;
#X f 103;
#X obj 39 748 outlet;
#X obj 39 42 route imageID;
#X msg 39 92 imageID \$1;
#X obj 39 67 symbol;
#X connect 0 0 4 0;
#X connect 2 0 3 0;
#X connect 4 0 6 0;
#X connect 4 1 2 0;
#X connect 5 0 3 0;
#X connect 6 0 5 0;
