#N canvas 318 105 962 660 12;
#X obj 27 20 inlet;
#X obj 27 202 outlet;
#X text 116 10 http://openframeworks.kr/doxygen/classof_light.html#a511fcf1d033fd005ecdd5d0eb9c5811f
, f 100;
#X text 378 30 https://forum.openframeworks.cc/t/understanding-oflight/26230/3
, f 100;
#X text 723 6 https://forum.openframeworks.cc/t/3-point-light-in-of/22075/2
, f 100;
#X obj 115 138 ofelia d light\$0;
#X f 17;
#X obj 27 45 route imageID;
#X msg 27 70 imageID \$1;
#X obj 135 45 loadbang;
#X msg 135 70 read scripts/of-worldlight.lua;
#X connect 5 0 1 0;
#X connect 6 0 7 0;
#X connect 6 1 5 0;
#X connect 7 0 1 0;
#X connect 8 0 9 0;
#X connect 9 0 5 0;
