#N canvas 329 176 951 436 12;
#X obj 66 3 inlet;
#X obj 8 183 outlet;
#X text 810 270 RI;
#X text 108 293 https://forum.openframeworks.cc/t/ofcamera-and-inverted-texture-mapped-image/26398
;
#X text 108 273 Note: Pixel Coordinate is reversed in openGl;
#X text 25 235 ofcamera rendering order is betwween 0 and 1000 Rendring
< 0 and > 1000 will be out of camera (useful for designing GUI), f
121;
#X obj 66 26 s _win;
#X obj 8 13 r _win;
#X obj 8 138 ofelia d window-\$0;
#X obj 147 61 loadbang;
#X msg 147 86 read scripts/of-window.lua;
#X obj 112 337 ofelia d window-\$0-finisher \; function M.new() ofWindow.addListener("draw"
\, this \, 1000) end \; function M.free() ofWindow.removeListener("draw"
\, this) end \; function M.draw() ofPopView() _maincamera:endCamera()
\; end;
#X f 100;
#X connect 0 0 6 0;
#X connect 7 0 8 0;
#X connect 8 0 1 0;
#X connect 9 0 10 0;
#X connect 10 0 8 0;
